<svg xmlns="http://www.w3.org/2000/svg" viewBox="0 0 120 120" width="120" height="120">
  <defs>
    <linearGradient id="trackiyoFaviconBg" x1="0%" y1="0%" x2="100%" y2="100%">
      <stop offset="0%" stop-color="#6366F1"/>
      <stop offset="50%" stop-color="#4F46E5"/>
      <stop offset="100%" stop-color="#06B6D4"/>
    </linearGradient>
    <linearGradient id="trackiyoGlyph" x1="0%" y1="0%" x2="0%" y2="100%">
      <stop offset="0%" stop-color="#FFFFFF"/>
      <stop offset="100%" stop-color="#F8FAFC"/>
    </linearGradient>
    <filter id="trackiyoShadow" x="-10%" y="-10%" width="120%" height="120%">
      <feDropShadow dx="0" dy="2" stdDeviation="2.5" flood-opacity="0.3"/>
    </filter>
  </defs>
  <!-- Background Squircle with subtle inset border -->
  <rect x="6" y="6" width="108" height="108" rx="30" fill="url(#trackiyoFaviconBg)"/>
  <rect x="7" y="7" width="106" height="106" rx="29" fill="none" stroke="rgba(255,255,255,0.25)" stroke-width="1.5"/>
  <!-- The Trackiyo Momentum T (Unified Vector Mark) -->
  <g transform="translate(10, 10)">
    <path d="M 27 21 H 73 C 76.8 21 80 24.2 80 28 C 80 31.8 76.8 35 73 35 H 57 V 62 C 57 66.5 60 69.5 64.5 69.5 C 67.5 69.5 70.5 68 72.5 65.5 L 80 73.5 C 75.5 78.5 70 81.5 63 81.5 C 51.5 81.5 43 73 43 62 V 35 H 27 C 23.2 35 20 31.8 20 28 C 20 24.2 23.2 21 27 21 Z" fill="url(#trackiyoGlyph)" filter="url(#trackiyoShadow)"/>
  </g>
</svg>